<?xml version="1.0" encoding="utf-8"?>
<!-- Generator: Adobe Illustrator 21.0.2, SVG Export Plug-In . SVG Version: 6.00 Build 0)  -->
<svg version="1.1" id="Layer_1" xmlns="http://www.w3.org/2000/svg" xmlns:xlink="http://www.w3.org/1999/xlink" x="0px" y="0px"
	 viewBox="0 0 777 845" style="enable-background:new 0 0 777 845;" xml:space="preserve">
<style type="text/css">
	.st0{fill:#005385;}
	.st1{fill:#231F20;}
	.st2{font-family:'Magneto-Bold';}
	.st3{font-size:211.9072px;}
	.st4{font-size:109.7864px;}
</style>
<g>
	<path d="M551,340.6v71.1h-37.7c2.6-4.2,4.9-8.3,6.9-12.4h18.4V353H437.9v-34.1c3.5-2.6,7.6-4.7,12.4-6.1v27.9H551z"/>
	<path d="M501.4,399.3c-2.4,4.1-5,8.2-8.1,12.4h-43v195.8h-70.7V479.4c4.1,3.5,8.3,7,12.4,10.4v105.3h45.9V399.3H501.4z"/>
	<path d="M392,399.3v68.8c-4.1-3.5-8.3-7.2-12.4-10.9v-45.5H278.9v-71.1H302c-1.3,4.4-2.1,8.5-2.5,12.4h-8.2v46.3H392z"/>
	<path d="M450.3,270.9v24.7c-4.3,0.9-8.5,2.2-12.4,4.1v-16.4H392V353h-75.7c0.6-4.2,1.8-8.6,3.3-12.4h60v-69.7H450.3z"/>
	<path d="M528.2,355.7h-11.7c2.2,37.9-35.3,78-63.5,103.4v15.5C487,445.3,530.3,400.3,528.2,355.7z"/>
	<path d="M435.2,474.3v14.9c-9,7.2-16,12.3-20.6,15.7c-31.5-25.1-71-57.4-93.6-90.6h14.3c20.4,27.2,53,54.6,79.5,75.9
		C422.1,484.9,428.8,479.6,435.2,474.3z"/>
	<path d="M376.9,298.1v11.8c-45.7-10.1-82.1,33.8-53.1,86.8h-13.1C283.7,340.9,321.7,288.2,376.9,298.1z"/>
	<path d="M524.8,337.9h-12.5c-13.9-31.9-69.6-46-92.3-1.3l-5.2,10.2c-5.8-11.4-9.8-20.9-20.2-28.8v-13.8
		c7.5,4.1,14.4,10.2,20.1,18.4C444.8,279.3,509.8,294.1,524.8,337.9z"/>
</g>
<g transform="translate(0.000000,1280.000000) scale(0.100000,-0.100000)">
	<path class="st0" d="M8447,16295"/>
	<path class="st0" d="M5149,12693c-19-19-54-47-79-61c-40-24-58-28-166-32c-119-6-123-6-183-43c-57-36-140-59-180-51
		c-9,2-62,10-119,19c-93,15-109,15-170,1c-82-18-294-88-380-124c-61-26-63-28-57-57c5-27-4-21-82,58c-49,48-91,87-95,87
		c-3,0-18-25-33-55c-14-30-42-67-60-81c-31-24-102-50-111-42c-2,3,12,53,32,112s33,110,30,113c-5,5-52-6-178-43c-12-4-31,16-69,73
		c-29,43-53,80-55,82s-55-35-119-83l-115-86v-50c0-47,2-51,40-76c45-30,47-35,24-73c-14-24-14-31,10-95l24-69l-49,7
		c-27,3-72,9-100,13l-52,6l118-157c65-86,116-158,114-160c-2-1-62,3-134,10c-71,7-185,13-253,13c-143,1-136,14-70-127
		c25-53,37-93,34-106c-3-11-26-52-50-90l-44-68l-38,56c-22,30-42,55-46,56c-9,0-13-46-10-94c4-45,38-93,101-138
		c66-48,258-218,316-278l40-42l-45,7c-62,10-77,19-141,85c-43,45-68,62-112,76c-52,16-60,16-120,1c-36-9-97-31-135-50l-71-34l-73,74
		c-70,71-92,87-83,61c7-20,26-240,22-245c-2-2-26,7-53,20c-63,31-106,39-144,26c-50-18-63-68-39-151c9-35,13-38,45-38
		c115,0,88-78-41-120l-40-13l70-61c88-76,213-201,243-244l23-32h-46c-29,0-78,13-138,37c-102,40-164,46-254,24l-53-13l26-41
		c57-93,82-157,89-232l7-75h34c19,0,76,7,126,16c51,9,110,14,130,11c36-5,108-51,108-69c0-5-81-8-195-6c-107,2-195,2-195,0
		s10-16,22-32c36-50,88-78,169-93c59-11,90-23,139-57c62-42,63-43,39-56c-28-15-78-17-131-5c-32,8-38,6-38-8c0-25,28-203,33-207
		c2-2,25,2,52,10l47,15l-4-54c-7-78-17-87-95-79c-61,7-270-12-277-25c-2-3,12-30,32-59c48-72,91-98,173-105c72-7,148-35,127-49
		c-25-15-181-8-258,12c-41,11-81,20-89,20c-10,0-12-25-10-125l4-124l-50-8l-50-8l-3-64c-3-63-3-63-30-57c-15,4-68,9-118,13l-90,6
		l-130-57c-71-31-137-60-147-64c-15-6-4-15,55-44c40-21,98-42,128-49c72-15,195-7,300,22c92,25,263,32,309,12c24-10,24-10-25-44
		c-47-32-53-34-144-35c-102-1-139-10-269-70l-74-34l44-35c24-19,64-42,89-51c55-20,224-29,352-19l93,7l27,43c35,58,89,95,201,140
		c165,66,189,97,188,244c-1,109,8,135,58,168c70,47,138,19,161-66c18-68-17-104-120-123l-59-10l32-28c71-61,189-100,310-100
		c37,0,67-3,66-7c-1-15-182-146-218-159c-20-7-87-26-150-43s-116-33-119-36c-4-4-60-238-62-256c0-4,30-14,66-23l66-17l83,76
		c46,41,85,75,88,75c7,0-14-70-36-120c-24-55-57-91-101-111c-55-25-66-24-174,11c-146,47-181,41-263-47c-71-76-78-110-66-328
		c4-80,3-156-2-177c-9-38-9-38,30-50c21-6,39-12,39-13s-10-27-23-58l-23-56l-34,20l-34,21l-18-24c-10-12-30-48-46-78
		c-23-47-27-66-25-130c3-89-7-124-58-202c-41-64-64-126-74-199l-7-46l54-6c123-15,173-5,234,46c18,15,35,27,38,27
		c13,0-53-85-154-200c-162-185-201-295-147-413l25-55l-24-23c-13-12-24-33-24-47c0-22,2-23,43-17c74,13,159,58,210,114
		c54,58,94,138,126,253c29,104,61,173,116,253c38,56,45,74,45,113c0,54-26,115-89,212c-42,64-43,66-36,130c19,196,21,173-16,192
		l-34,17h40c111,2,176,46,309,206c64,78,125,141,157,162c74,50,159,94,170,87c15-9,9-77-11-121c-23-51-80-91-187-131
		c-71-26-73-28-73-60c0-41-12-66-61-119c-21-22-46-58-57-80c-18-35-48-151-40-157c1-2,26-15,53-30c45-24,131-94,123-100
		c-2-2-82,10-178,25s-176,26-177,25c-6-5,131-152,183-198c124-108,228-158,329-158h55l-19,38c-35,68-82,123-117,138
		c-29,12-34,19-34,47v32l33-37l32-37l63,46c34,26,62,54,62,63c1,8,18,132,39,275l37,260l38,3c65,6,63,10,49-159c-7-84-11-154-8-157
		c13-13,303-86,385-96c108-15,146-30,210-86l45-39l-52-1c-52,0-126,13-288,50c-174,40-215,36-281-29c-35-34-44-66-44-151
		c0-31-7-101-15-156c-8-54-15-106-15-115c0-8,35-41,78-71c96-70,197-174,222-230c30-69,34-110,15-175c-15-52-27-68-120-159
		c-81-80-105-108-109-135c-23-150-28-166-54-204c-15-22-57-62-92-88c-171-127-196-175-185-364l6-118l-32-54l-31-54l-32,54
		c-72,127-116,160-181,139c-43-14-91-68-106-119c-30-100,30-180,177-237c111-43,119-51,164-184c17-52,42-109,55-125
		c27-36,120-89,140-81c21,8,19,74-6,202c-11,58-17,119-14,135c9,40,49,69,95,69c84,0,164-46,330-190c126-110,146-121,225-128
		c55-4,64-2,93,23c29,24,32,32,32,81c0,63-34,147-98,242c-23,32-44,70-47,83c-5,21-1,26,28,37c72,26,110,10,153-64
		c29-49,53-60,113-50c35,5,38,4,54-29c41-87,233-152,372-126c40,8,75,23,119,54c77,55,112,67,200,67c90,1,131,21,173,83
		c48,72,53,180,14,315c-9,30-8,33,7,27c73-31,152-47,262-55c69-4,166-18,215-30c50-13,123-23,165-23c105-1,155,23,250,121
		c112,116,614,472,846,602c107,59,276,131,342,145c28,6,32,10,26,28c-15,52-58,135-93,182c-54,71-71,108-71,157c0,86,86,191,220,270
		c35,21,69,39,74,41c6,2-28,86-74,186l-85,184l-95,29c-52,16-147,46-210,65c-70,22-181,69-282,119l-168,84l-127-28l-128-28l-6-63
		c-5-52-11-67-38-95c-37-39-112-66-180-66c-71,0-146,23-289,89c-181,84-196,87-334,71c-189-21-248-9-302,64c-19,25-19,29-6,53
		c38,67,154,85,286,45c68-21,368-57,385-47c4,3,10,19,14,35c8,36,19,37,91,5c31-14,58-25,59-25s5,24,8,54c11,106,94,225,183,262
		c32,13,42,13,89-1c94-27,145-20,309,40c82,30,151,55,153,55s3,19,1,41l-3,42l-125,63c-100,51-143,67-217,81l-91,17l24,49
		c14,27,24,50,22,52c-2,1-32,10-67,18l-65,17l-51-49c-28-26-66-53-85-59c-67-22-315-62-386-62c-74,0-81,3-101,50l-10,25l91,1
		c114,2,151,15,272,99c56,39,124,77,168,93c72,25,77,26,158,14c110-16,149-15,249,4c117,21,233,79,307,152c54,53,140,168,131,175
		c-2,2-26,16-54,32c-27,16-65,39-82,53c-66,50-29,115,85,148c140,40,138,39,214,143c39,53,107,138,150,188c43,51,87,107,97,125
		s47,123,81,233l62,200l67,70c64,65,72,79,121,205c45,113,60,141,93,170c74,64,102,96,127,143l25,46l-41,43c-59,62-80,95-129,210
		c-30,68-56,114-79,135c-35,32-117,63-167,63c-46,0-160-27-270-64c-171-57-249-76-339-82c-110-8-192,10-335,71c-60,26-124,51-142,55
		c-20,5-83-2-180-20c-133-24-154-25-203-14c-219,49-318,66-365,61c-68-8-177-45-390-137c-99-42-238-101-310-131
		c-127-53-133-57-234-153c-57-54-118-104-136-112c-52-21-228-54-294-54c-53,0-65,4-93,29c-32,29-32,31-18,57c23,41,59,49,158,34
		c83-13,86-13,130,11c78,41,340,305,321,323c-12,12-130,28-160,22c-20-3-76-34-125-70c-82-58-170-103-181-92c-4,4,17,83,48,182
		l10,32l92,4c79,3,103,9,167,38c68,32,82,35,160,34c58-1,104-9,144-23c84-30,86-29,86,28c0,69,10,89,75,151c47,45,125,147,125,163
		c0,2-73-23-162-55c-92-34-170-57-182-54s-82,10-156,16c-141,12-202,30-248,73l-24,22l210,5l210,5l-54,94c-30,51-53,95-52,96
		c2,1,33,10,70,19c36,10,97,33,135,53c37,19,140,68,227,109c88,40,176,85,196,99s68,64,106,111c54,66,101,109,214,193
		c80,59,168,123,195,141c73,49,154,129,177,173c10,21,22,61,25,88l6,49h38c22,0,39,4,39,8c0,5-13,48-30,95c-16,48-30,95-30,104
		s23,38,51,64l50,48l-33,5c-18,4-82,11-143,16c-96,10-147,20-281,59C5185,12727,5179,12725,5149,12693z M5280,12665
		c46-14,134-30,197-36c62-7,113-16,113-20c0-5-4-9-8-9c-13,0-42-57-42-82c0-14,11-57,24-96l25-72h-41c-38,0-40-1-34-25
		c9-37-11-112-44-160c-16-24-56-63-89-86c-368-270-397-294-461-371c-87-107-117-129-267-197c-70-32-170-79-221-105
		c-51-25-134-58-185-73c-50-14-93-27-95-28c-1-1,20-41,47-89l50-86h-209c-116,0-210-4-210-8c0-5,13-27,30-50c55-76,130-104,315-117
		c50-3,106-9,125-14c29-6,54-1,135,29c161,60,158,60,84-16c-77-80-89-100-89-148c0-19-4-37-8-40c-5-3-27,2-51,10
		c-67,23-164,33-212,23c-24-6-75-24-113-42c-63-28-82-32-165-33l-95-1l-44-147c-24-81-42-149-40-151c11-11,143,40,198,78
		c154,104,148,101,207,100c30-1,58-4,61-8c9-9-205-220-265-262c-52-36-53-36-109-24c-111,22-170,13-206-33c-37-45-16-101,49-135
		c47-24,221-8,364,33c47,14,73,32,171,124c110,102,120,109,224,151c60,24,190,79,290,121c196,85,336,135,399,145c30,5,93-5,229-34
		l189-42l137,26c76,14,150,25,165,25s79-22,143-49c149-63,220-81,320-81c103,0,182,17,378,81c296,96,413,77,475-80
		c41-103,87-186,129-234c41-46,42-50,29-75c-14-26-64-79-130-137c-26-24-46-61-87-165c-50-127-57-139-122-205l-68-70l-66-214
		c-36-118-72-221-78-230c-7-9-45-54-84-101s-102-128-141-180c-39-53-77-101-86-108c-8-7-49-21-92-33c-134-35-175-69-175-144
		c0-42,2-44,75-94c41-29,75-55,75-58c0-14-76-107-121-147c-126-113-291-154-534-132c-82,8-97,6-155-15c-36-13-114-56-173-96
		s-127-78-150-84c-24-6-87-9-144-7s-103,3-103,2s13-31,29-67c25-56,34-67,65-77c40-13,123-8,246,15c41,8,104,19,140,25
		c78,14,133,40,181,87c32,31,40,34,73,28c20-4,36-9,36-11c0-3-11-27-25-54s-25-52-25-55s12-5,28-5c80,0,192-32,310-90
		c133-65,152-87,90-107c-18-6-85-29-148-52c-126-45-153-48-226-26c-71,21-103,19-160-15c-82-46-156-153-171-243c-3-22-10-36-17-34
		c-6,3-35,14-64,26l-53,21l-10-28c-5-15-12-33-14-40s-21-12-42-12c-76,1-270,29-343,50c-123,35-226,18-286-47c-33-36-31-77,6-123
		c50-63,95-75,253-65c218,13,206,15,372-60c83-37,173-74,200-81c75-20,175-18,239,6c86,33,117,77,128,180c3,23,10,27,113,49l110,23
		l152-75c137-69,258-113,546-201c36-10,40-17,98-141c33-71,67-144,74-162l13-31l-65-39c-138-80-225-194-225-292c1-62,19-106,73-173
		c46-58,93-149,81-159c-4-3-43-18-87-34c-187-65-386-182-760-449c-165-118-281-209-340-267c-101-99-141-119-239-119
		c-33,0-97,9-141,20s-150,27-235,35c-131,11-167,18-233,45c-43,18-81,30-83,27c-3-3,3-36,13-74c11-43,18-104,18-169
		c0-95-2-103-28-137c-37-49-56-57-140-63c-119-8-133-13-213-67c-74-50-81-52-154-55c-151-7-260,37-302,123c-19,40-24,44-47,37
		c-14-3-42-7-61-7c-30,0-37,5-58,43c-45,81-118,102-212,61l-49-21l19-44c11-24,38-72,62-107c82-121,109-226,68-267
		c-23-23-52-25-115-9c-33,8-73,36-162,113c-178,152-258,198-344,198c-87-1-139-49-139-126c0-19,6-65,14-103c8-37,16-90,17-118
		c3-57-5-59-59-19c-38,30-56,62-83,152c-40,131-61,153-189,201c-113,43-153,86-152,164c1,64,54,127,108,127c40,0,71-35,135-150
		l44-78l39,61c57,89,69,143,55,240c-21,144,8,204,152,313c115,87,154,143,164,234c11,107,19,123,108,203c112,101,142,156,142,257
		c0,61-5,84-27,125c-37,72-107,145-209,222c-78,58-87,69-84,92c27,159,34,215,34,268c-1,72,9,94,55,122c42,26,80,28,176,8
		c41-9,118-25,170-37c92-19,231-25,277-12c20,6,14,14-55,71c-96,80-134,97-247,110c-50,6-128,22-175,35s-107,29-134,36l-49,13l6,86
		c4,47,10,121,13,164l7,77h-81c-68,0-81-3-86-17c-3-10-22-138-42-285l-37-267l-45-32l-45-32l-21,29c-44,62-123,138-173,166
		c-32,18-53,37-53,47c0,50,33,121,85,181c36,42,57,75,61,99c3,20,7,40,8,45c1,4,31,19,66,33c85,32,149,74,179,119
		c28,40,39,126,24,182l-8,33l-90-45c-119-60-177-106-255-201c-117-144-181-202-244-220c-37-11-70-14-100-10l-45,7l21,52
		c33,82,33,81-9,95l-38,13v211c0,238-3,227,84,311c36,36,46,40,88,39c27-1,81-13,122-27c90-31,141-33,197-5c49,23,86,67,118,142
		c24,54,62,195,54,202c-2,3-56-41-119-96c-108-94-116-99-149-94c-19,4-38,10-43,14c-6,6,29,196,39,209c1,2,66,21,144,42
		c130,36,148,44,209,91c36,28,99,77,139,108l73,56l-133,6c-132,6-204,21-269,55l-34,17l43,14c89,30,122,96,88,176
		c-35,83-111,111-190,72c-69-35-80-60-86-195c-5-114-6-120-34-149c-16-17-63-45-105-62c-150-62-189-88-246-163l-26-34l-125-7
		c-146-9-254,4-321,39l-47,23l44,23c88,45,149,60,244,60c99,0,118,7,205,78c49,39,47,42-36,67c-77,24-187,18-336-15
		c-74-16-154-30-179-30c-51,0-145,23-190,46l-31,16l59,25c188,80,174,76,249,69c38-3,93-12,122-20l52-14l3,72l3,71l64,13
		c36,7,67,15,70,17c2,3-4,14-15,26c-15,17-20,40-23,111l-3,91l23-6c172-39,183-40,299-25l114,13l-52,39c-58,42-124,66-184,66
		c-21,0-52,7-67,15c-28,14-81,69-81,84c0,16,149,32,227,26c102-9,112,1,124,117c4,45,7,83,6,85c-2,1-26-4-55-11c-29-8-54-11-56-8
		c-2,4-7,35-11,68l-7,62l54-2c39-1,69,6,112,27l60,28l-96,64c-77,52-107,65-150,71c-56,7-111,26-136,47c-12,10,24,13,183,17l198,5
		l-51,56c-79,87-93,89-329,61l-63-8v31c0,53-29,145-64,205l-34,58l30,6c66,13,127,6,203-25c96-38,179-53,234-42l42,8l-94,110
		c-52,61-130,139-172,174l-77,64l34,14c35,15,74,48,89,75c21,39-15,75-93,92c-21,5-27,13-33,45c-4,23-2,48,5,60c22,41,116,19,224-54
		l29-19l-6,54c-4,30-9,87-13,125l-6,70l52-51l53-52l95,46c161,78,253,69,336-32c21-26,51-53,68-62c31-16,208-35,208-22
		c0,12-306,293-388,355c-69,53-122,116-109,129c2,3,18-13,34-35l30-41l61,99c42,66,62,109,62,130c0,17-16,63-35,101s-35,72-35,75
		c0,10,264,4,400-9c74-7,136-12,137-12c1,1-50,70-113,155c-64,84-114,154-112,156s36-1,76-7s75-8,78-5c4,3-6,42-21,87
		c-22,67-25,86-16,106c19,42,13,62-29,95c-66,53-59,75,53,159c52,38,96,70,99,70s25-30,49-67c24-36,47-70,50-74c3-5,42,2,87,15
		s82,21,82,17c0-3-16-55-36-114c-20-60-34-110-32-112c6-6,118,25,148,40c37,19,86,72,101,107l12,30l119-119c65-65,118-113,118-108
		c0,6-7,35-15,65s-15,60-15,67c0,12,102,54,240,98c195,62,227,65,370,39c117-21,181-12,263,36c63,36,69,38,178,42
		c132,5,178,21,249,86c25,23,45,41,46,42C5196,12690,5234,12679,5280,12665z M2076,7309c40-22,76-44,79-49s-2-52-10-104
		c-18-109-20-102,68-244c50-80,67-154,47-192c-7-13-28-43-46-68c-43-55-55-83-110-252c-63-193-119-267-235-311c-67-26-77-24-46,9
		c26,27,26,27,8,56c-35,52-45,111-32,172c15,66,58,132,177,266c111,126,141,171,159,237c7,28,11,51,9,51s-38-27-79-60
		c-89-70-131-85-210-75l-57,7l6,45c7,52,29,103,86,192c39,64,40,66,40,158s14,143,52,191C1996,7354,1993,7355,2076,7309z M2423,6959
		l137-22v-52c0-51,1-52,39-67c35-14,101-85,101-110c0-26-119,14-206,71c-62,39-236,200-219,201C2281,6980,2347,6971,2423,6959z"/>
	<path class="st0" d="M1371,12458c-24-12-87-62-140-111c-134-127-186-158-361-221c-101-36-132-68-157-163c-19-75-42-118-91-173
		l-39-44l-16,30c-20,40-80,92-114,100c-33,9-173-24-179-41c-3-7,0-32,6-54l11-42l-56-52c-43-41-55-59-55-82c0-55,39-80,106-70
		c43,6,44,6,59-31c8-20,15-40,15-45s-31-9-69-9h-69l-16-47c-9-26-16-50-16-55c0-4,27-21,59-37c32-17,68-42,80-57
		c20-26,48-101,40-107c-2-2-52-22-112-43l-107-40l35-41c79-93,178-130,258-99c54,21,84,49,134,122c60,89,58,87,169,79
		c90-7,96-6,91,11c-3,11-11,39-17,64c-20,75-55,132-119,194c-34,32-61,59-59,61c7,5,71,25,74,23c1-2,9-20,17-40
		c19-45,101-103,168-117c60-13,131,4,251,62l88,42l-24,50c-39,82-102,125-188,125c-61,1-35,11,125,50c128,31,138,35,132,54
		c-4,12-9,55-12,96c-5,67-3,78,17,103c29,37,55,49,194,91c66,20,121,38,123,39c1,2-10,49-26,104c-24,84-27,108-20,148
		c11,61-2,113-38,147C1465,12486,1437,12491,1371,12458z M1500,12410l33-31l-6-79c-5-66-2-92,18-161c13-46,23-84,22-85s-45-14-97-29
		c-133-37-173-57-206-100c-26-34-28-45-27-109c1-39,3-80,5-90c3-18-18-25-199-69c-173-43-203-53-203-68c0-17,9-19,105-19
		c140,0,201-26,241-102l14-28l-67-31c-148-68-210-75-288-30c-68,39-83,59-86,109c-2,23-5,42-8,42c-13,0-171-66-171-71
		c0-3,27-27,60-54c69-56,124-130,144-197l14-48h-82c-98,0-108-6-165-94c-45-68-97-112-147-122c-41-8-121,27-164,71l-33,34l29,12
		c16,6,61,22,99,36c39,14,71,27,73,28c8,7-28,117-48,145c-12,17-46,45-76,61c-55,32-58,36-48,63c5,13,23,16,90,16c61,0,84,3,83,13
		c0,6-13,44-28,82l-29,70h-68c-56,0-69,3-72,17c-4,19,49,81,90,106c23,13,28,22,23,41c-19,76-19,78,16,90c17,6,54,11,81,11
		c43,0,54-4,80-32c16-17,38-49,49-70l20-38l30,22c51,38,118,135,135,197c8,31,19,67,23,81c12,39,79,83,175,114
		c108,36,207,99,314,201c106,102,139,124,183,125C1459,12440,1476,12432,1500,12410z"/>
	<path class="st0" d="M1645,11924c-11-1-86-8-167-15l-148-12v-69v-70l28,6c15,3,69,10,119,16c51,5,106,16,122,25c29,15,67,58,90,103
		C1701,11931,1699,11932,1645,11924z M1614,11859c-26-26-42-32-105-39c-41-5-89-12-106-15c-32-6-33-5-33,29v34l88,7c48,3,96,7,107,9
		s33,4,50,5l30,1L1614,11859z"/>
	<path class="st0" d="M1075,10738c-98-81-95-68-47-195l31-83h-45c-57,0-91,17-131,68c-33,40-155,112-161,94c-1-5,8-92,22-193
		s23-185,21-187s-52,24-112,57c-106,60-108,60-116,38c-14-35-1-129,23-176c24-48,84-117,143-163l38-31l48,47c35,34,54,46,77,46
		c57,0,84-49,104-195c22-155,50-213,116-241c49-20,75-17,137,16c75,40,101,39,143-5l33-35l57,15c108,28,144,17,144-45
		c0-21-5-42-10-45c-18-11-130-145-130-155c0-15,70-12,128,5c71,21,109,58,160,154c24,45,54,94,66,109s39,48,60,74l37,47l-43,10
		c-158,39-253,81-335,148c-75,60-87,93-127,348c-39,241-56,316-86,375c-22,42-91,122-130,150l-28,20L1075,10738z M1285,10630
		c35-69,50-133,90-380c19-124,43-239,52-257c44-89,182-183,340-232l82-26l-47-61c-27-34-64-92-84-130c-53-101-106-144-175-144
		c-25,0-23,3,29,58c30,31,58,70,62,86c9,35-10,93-34,106c-25,13-104,13-151-2c-36-10-40-9-66,17c-54,54-77,54-179,2l-62-31l-41,18
		c-53,24-77,73-95,198c-20,135-33,174-66,211c-25,28-35,32-75,31s-52-6-89-43l-42-41l-63,62c-35,35-72,82-83,105
		c-18,40-36,133-26,133c3,0,58-30,122-66c65-36,119-64,122-62c2,3-7,88-21,189s-25,190-25,197c0,21,39-4,105-69c67-65,122-85,200-73
		l42,6l-38,99c-22,55-39,106-39,113s30,39,68,69l67,56l48-47C1240,10696,1272,10655,1285,10630z"/>
	<path class="st0" d="M1612,10341c-47-87-82-123-138-141l-37-12l6-63c14-144,78-206,167-160c48,25,60,61,59,177c-1,57-4,142-8,191
		l-6,87L1612,10341z M1639,10130c1-84-12-117-52-140c-24-13-30-13-54,0c-29,16-45,53-57,127l-6,43l46,22c30,14,58,38,78,66l31,44
		l7-44C1635,10225,1639,10171,1639,10130z"/>
	<path class="st0" d="M962,9303c-17-53-30-98-28-100c4-4,349,27,354,32c2,2-286,165-292,165C995,9400,980,9356,962,9303z M1093,9309
		c40-22,76-44,80-48c5-5-35-11-88-15c-54-4-99-5-102-2c-6,5,26,106,33,106C1019,9350,1053,9332,1093,9309z"/>
	<path class="st0" d="M795,8664c-11-9-64-42-117-75c-112-69-162-120-179-181c-7-24-15-46-18-50c-3-3-42-11-86-17
		c-119-17-202-40-275-76c-107-55-107-54-66-94c32-31,41-34,93-34c100,0,227,65,478,244c194,137,229,182,210,268
		C828,8684,823,8686,795,8664z M800,8589c-12-43-36-67-170-164c-75-55-106-73-108-62c-5,23,35,94,69,125c30,26,212,143,216,138
		C808,8625,805,8608,800,8589z M450,8300c-14-11-71-43-127-72c-81-41-115-53-163-56c-59-4-97,9-84,29c9,16,97,56,159,74
		c47,14,179,39,230,44C471,8319,464,8311,450,8300z"/>
	<path class="st0" d="M1203,8563c-23-19-70-49-104-66c-74-38-97-65-105-129c-6-40-4-48,9-48c37,0,89-36,118-81c27-43,35-49,77-54
		c26-4,66-10,89-13l42-7l-69-45c-38-25-70-47-70-50s36-25,80-49c44-25,77-48,73-51c-5-4-114-32-243-64s-238-61-242-65
		c-15-13,56-104,87-113c182-49,292-22,311,77c6,32,7,33,37,24c56-16,103-10,172,22c62,29,72,31,139,26l73-6l43,45
		c56,59,90,76,167,82l63,5v32c0,48-28,131-55,163c-16,19-61,45-125,72c-101,43-146,72-263,170c-36,30-109,78-164,107l-98,51
		L1203,8563z M1390,8483c30-17,84-57,120-88c92-81,153-120,246-155c44-17,93-43,107-58c25-25,60-128,50-144c-2-5-18-8-35-8
		c-57,0-110-24-166-74l-55-50l-73,3c-66,2-81-1-139-29c-62-30-69-31-123-22c-31,6-64,13-73,17c-13,5-18-3-24-41c-10-72-39-94-120-94
		c-90,0-155,17-183,47c-13,14-20,29-15,33c4,4,126,36,270,71c145,35,263,66,263,69s-44,29-96,59l-96,53l87,58l87,58l-38,5
		c-22,4-78,11-127,18c-73,9-89,15-98,33c-20,37-72,85-105,96c-29,10-32,14-24,38c15,52,21,57,94,95c40,20,83,48,95,61l23,24l46-21
		C1314,8525,1360,8501,1390,8483z"/>
	<path class="st0" d="M1771,7469c-122-21-251-110-385-268c-153-181-170-223-121-307c26-45,133-130,146-117c4,5,23,40,43,79
		c40,80,46,137,20,199l-15,37l43-6c92-14,165,34,243,159c40,63,105,204,105,226C1850,7481,1845,7481,1771,7469z M1795,7418
		c-16-51-89-180-127-223c-61-69-86-79-184-71l-83,7l26-53c40-82,40-116,5-192c-17-36-35-66-41-66c-5,0-32,22-59,48
		c-84,82-80,118,29,252c133,164,232,249,345,295C1783,7447,1804,7447,1795,7418z"/>
	<path class="st0" d="M1030,7318c-47-33-92-63-100-68c-22-13-9-20,48-27c64-7,92,0,125,33c21,21,27,37,27,70c0,23-3,45-7,47
		C1118,7375,1077,7350,1030,7318z M1100,7311c0-20-37-50-70-56c-40-8-39-7,15,34C1087,7320,1100,7326,1100,7311z"/>
	<path class="st0" d="M1045,6978c-43-22-82-54-95-78c-5-9-14-54-20-100c-8-60-25-115-56-188c-40-91-73-206-74-254c0-15,4-15,47-2
		c68,21,91,39,104,84c10,33,16,39,31,34c25-7,155,14,190,32c15,8,32,23,38,33c17,32,10,112-14,176c-13,33-41,111-62,173
		c-21,61-41,112-44,112C1087,6999,1067,6990,1045,6978z M1089,6908c7-24,31-88,53-142c72-181,63-229-47-247c-81-14-96-14-127-6
		c-25,7-28,4-39-35c-14-49-33-73-68-83c-23-7-23-6-16,31c8,46,30,109,79,224c20,47,36,101,36,120c1,68,18,114,54,148
		c20,17,42,32,49,32C1071,6950,1082,6931,1089,6908z"/>
	<path class="st0" d="M724,6884l-112-85l14-52l14-52l-71-71l-70-70l25-23c24-23,25-23,78-6c122,40,234,120,273,195
		c28,54,30,127,5,193c-12,31-27,57-33,56C840,6969,785,6931,724,6884z M857,6871c29-100-29-198-156-265c-78-41-151-69-151-58
		c0,4,29,36,64,71l64,63l-14,51c-7,28-12,52-11,54c24,24,175,131,182,129C840,6915,850,6894,857,6871z"/>
	<path class="st0" d="M2293,6518c-49-82-53-100-52-256c0-170,9-206,59-240c80-54,177,9,202,131c23,109-29,281-112,371
		c-24,25-48,46-54,46C2329,6570,2310,6546,2293,6518z M2373,6493c14-16,40-59,58-98c27-58,34-85,37-157c5-100-5-136-51-174
		c-40-34-92-30-121,9c-18,25-21,45-24,166c-2,79,1,154,7,177c12,43,46,104,59,104C2343,6520,2358,6508,2373,6493z"/>
	<path class="st0" d="M1679,6000c-97-17-159-127-159-282c0-37,3-68,8-68c4,0,49,27,100,59c97,62,101,63,260,77c39,3,72,9,72,13
		c0,3-22,35-48,71C1836,5972,1761,6014,1679,6000z M1779,5950c37-18,121-103,121-121c0-5-6-9-12-9c-7,0-51-5-97-10
		c-70-8-93-15-135-43c-28-18-64-42-80-53l-29-18l6,63C1571,5927,1666,6008,1779,5950z"/>
</g>
<text transform="matrix(0.4791 0 0 1 15 238)" class="st1 st2 st3">Highlander’s</text>
<text transform="matrix(1.0153 0 0 1 224.0876 674.9043)" class="st2 st4">Heart</text>
</svg>
