<svg id="Layer_1" data-name="Layer 1" xmlns="http://www.w3.org/2000/svg" viewBox="0 0 777 845"><defs><style>.cls-1{fill:#005385;}.cls-2{font-size:211.91px;fill:#231f20;}.cls-2,.cls-3{font-family:Magneto-Bold, Magneto;font-weight:700;}.cls-3{font-size:109.79px;}</style></defs><title>Artboard 1</title><path d="M551,340.6v71.14H513.27q3.9-6.27,6.94-12.4H538.6V353H437.9V318.86a40.92,40.92,0,0,1,12.4-6.14V340.6Z"/><path d="M501.37,399.34q-3.54,6.09-8.06,12.4h-43V607.58H379.59V479.39q6.19,5.31,12.4,10.44V595.18H437.9V399.34Z"/><path d="M392,399.34v68.8c-4.13-3.53-8.29-7.16-12.4-10.86V411.75H278.9V340.6H302a71.3,71.3,0,0,0-2.49,12.4H291.3v46.33Z"/><path d="M450.31,270.88v24.71a56.81,56.81,0,0,0-12.4,4.06V283.29H392V353H316.29a57.35,57.35,0,0,1,3.26-12.4h60V270.88Z"/><path d="M528.17,355.67H516.51c2.16,37.9-35.29,78-63.54,103.44v15.51C487,445.28,530.33,400.29,528.17,355.67Z"/><path d="M435.25,474.32v14.95c-9,7.18-16,12.3-20.56,15.71-31.47-25.09-71-57.39-93.56-90.57h14.3c20.42,27.18,53,54.64,79.49,75.88Q425.63,482.21,435.25,474.32Z"/><path d="M376.93,298.09v11.84c-45.72-10.08-82.14,33.8-53.08,86.75H310.77C283.75,340.93,321.72,288.18,376.93,298.09Z"/><path d="M524.79,337.95H512.33c-13.94-31.92-69.57-46-92.34-1.3l-5.18,10.16C409,335.44,405,325.92,394.65,318V304.27a59.11,59.11,0,0,1,20.15,18.4C444.75,279.34,509.8,294.09,524.79,337.95Z"/><path class="cls-1" d="M514.9,10.7a43.69,43.69,0,0,1-7.9,6.1c-4,2.4-5.8,2.8-16.6,3.2-11.9.6-12.3.6-18.3,4.3-5.7,3.6-14,5.9-18,5.1-.9-.2-6.2-1-11.9-1.9-9.3-1.5-10.9-1.5-17-.1-8.2,1.8-29.4,8.8-38,12.4-6.1,2.6-6.3,2.8-5.7,5.7.5,2.7-.4,2.1-8.2-5.8-4.9-4.8-9.1-8.7-9.5-8.7s-1.8,2.5-3.3,5.5a26.67,26.67,0,0,1-6,8.1c-3.1,2.4-10.2,5-11.1,4.2-.2-.3,1.2-5.3,3.2-11.2s3.3-11,3-11.3c-.5-.5-5.2.6-17.8,4.3-1.2.4-3.1-1.6-6.9-7.3-2.9-4.3-5.3-8-5.5-8.2s-5.5,3.5-11.9,8.3L296,32v5c0,4.7.2,5.1,4,7.6,4.5,3,4.7,3.5,2.4,7.3-1.4,2.4-1.4,3.1,1,9.5l2.4,6.9-4.9-.7c-2.7-.3-7.2-.9-10-1.3l-5.2-.6,11.8,15.7c6.5,8.6,11.6,15.8,11.4,16s-6.2-.3-13.4-1-18.5-1.3-25.3-1.3c-14.3-.1-13.6-1.4-7,12.7,2.5,5.3,3.7,9.3,3.4,10.6-.3,1.1-2.6,5.2-5,9l-4.4,6.8-3.8-5.6c-2.2-3-4.2-5.5-4.6-5.6-.9,0-1.3,4.6-1,9.4.4,4.5,3.8,9.3,10.1,13.8,6.6,4.8,25.8,21.8,31.6,27.8l4,4.2-4.5-.7c-6.2-1-7.7-1.9-14.1-8.5-4.3-4.5-6.8-6.2-11.2-7.6-5.2-1.6-6-1.6-12-.1a79.66,79.66,0,0,0-13.5,5l-7.1,3.4-7.3-7.4c-7-7.1-9.2-8.7-8.3-6.1.7,2,2.6,24,2.2,24.5-.2.2-2.6-.7-5.3-2-6.3-3.1-10.6-3.9-14.4-2.6-5,1.8-6.3,6.8-3.9,15.1.9,3.5,1.3,3.8,4.5,3.8,11.5,0,8.8,7.8-4.1,12l-4,1.3,7,6.1c8.8,7.6,21.3,20.1,24.3,24.4l2.3,3.2h-4.6c-2.9,0-7.8-1.3-13.8-3.7-10.2-4-16.4-4.6-25.4-2.4l-5.3,1.3,2.6,4.1c5.7,9.3,8.2,15.7,8.9,23.2l.7,7.5h3.4a103.36,103.36,0,0,0,12.6-1.6c5.1-.9,11-1.4,13-1.1,3.6.5,10.8,5.1,10.8,6.9,0,.5-8.1.8-19.5.6-10.7-.2-19.5-.2-19.5,0a22.51,22.51,0,0,0,2.2,3.2c3.6,5,8.8,7.8,16.9,9.3A30.47,30.47,0,0,1,221,295c6.2,4.2,6.3,4.3,3.9,5.6-2.8,1.5-7.8,1.7-13.1.5-3.2-.8-3.8-.6-3.8.8,0,2.5,2.8,20.3,3.3,20.7.2.2,2.5-.2,5.2-1l4.7-1.5-.4,5.4c-.7,7.8-1.7,8.7-9.5,7.9-6.1-.7-27,1.2-27.7,2.5-.2.3,1.2,3,3.2,5.9,4.8,7.2,9.1,9.8,17.3,10.5,7.2.7,14.8,3.5,12.7,4.9-2.5,1.5-18.1.8-25.8-1.2a73,73,0,0,0-8.9-2c-1,0-1.2,2.5-1,12.5l.4,12.4-5,.8-5,.8-.3,6.4c-.3,6.3-.3,6.3-3,5.7a116.72,116.72,0,0,0-11.8-1.3l-9-.6-13,5.7c-7.1,3.1-13.7,6-14.7,6.4-1.5.6-.4,1.5,5.5,4.4a65.69,65.69,0,0,0,12.8,4.9c7.2,1.5,19.5.7,30-2.2,9.2-2.5,26.3-3.2,30.9-1.2,2.4,1,2.4,1-2.5,4.4-4.7,3.2-5.3,3.4-14.4,3.5-10.2.1-13.9,1-26.9,7l-7.4,3.4,4.4,3.5a38.37,38.37,0,0,0,8.9,5.1c5.5,2,22.4,2.9,35.2,1.9l9.3-.7,2.7-4.3c3.5-5.8,8.9-9.5,20.1-14,16.5-6.6,18.9-9.7,18.8-24.4-.1-10.9.8-13.5,5.8-16.8,7-4.7,13.8-1.9,16.1,6.6,1.8,6.8-1.7,10.4-12,12.3l-5.9,1,3.2,2.8c7.1,6.1,18.9,10,31,10,3.7,0,6.7.3,6.6.7-.1,1.5-18.2,14.6-21.8,15.9-2,.7-8.7,2.6-15,4.3s-11.6,3.3-11.9,3.6-6,23.8-6.2,25.6c0,.4,3,1.4,6.6,2.3l6.6,1.7,8.3-7.6c4.6-4.1,8.5-7.5,8.8-7.5.7,0-1.4,7-3.6,12-2.4,5.5-5.7,9.1-10.1,11.1-5.5,2.5-6.6,2.4-17.4-1.1-14.6-4.7-18.1-4.1-26.3,4.7-7.1,7.6-7.8,11-6.6,32.8.4,8,.3,15.6-.2,17.7-.9,3.8-.9,3.8,3,5a25.17,25.17,0,0,1,3.9,1.3c0,.1-1,2.7-2.3,5.8l-2.3,5.6-3.4-2-3.4-2.1-1.8,2.4a67.21,67.21,0,0,0-4.6,7.8c-2.3,4.7-2.7,6.6-2.5,13,.3,8.9-.7,12.4-5.8,20.2a47.27,47.27,0,0,0-7.4,19.9l-.7,4.6,5.4.6c12.3,1.5,17.3.5,23.4-4.6a18.23,18.23,0,0,1,3.8-2.7c1.3,0-5.3,8.5-15.4,20-16.2,18.5-20.1,29.5-14.7,41.3l2.5,5.5-2.4,2.3a7.64,7.64,0,0,0-2.4,4.7c0,2.2.2,2.3,4.3,1.7a39.94,39.94,0,0,0,21-11.4c5.4-5.8,9.4-13.8,12.6-25.3,2.9-10.4,6.1-17.3,11.6-25.3,3.8-5.6,4.5-7.4,4.5-11.3,0-5.4-2.6-11.5-8.9-21.2-4.2-6.4-4.3-6.6-3.6-13,1.9-19.6,2.1-17.3-1.6-19.2l-3.4-1.7h4c11.1-.2,17.6-4.6,30.9-20.6,6.4-7.8,12.5-14.1,15.7-16.2,7.4-5,15.9-9.4,17-8.7,1.5.9.9,7.7-1.1,12.1-2.3,5.1-8,9.1-18.7,13.1-7.1,2.6-7.3,2.8-7.3,6,0,4.1-1.2,6.6-6.1,11.9a39.57,39.57,0,0,0-5.7,8c-1.8,3.5-4.8,15.1-4,15.7.1.2,2.6,1.5,5.3,3,4.5,2.4,13.1,9.4,12.3,10-.2.2-8.2-1-17.8-2.5s-17.6-2.6-17.7-2.5c-.6.5,13.1,15.2,18.3,19.8C250,608,260.4,613,270.5,613H276l-1.9-3.8c-3.5-6.8-8.2-12.3-11.7-13.8-2.9-1.2-3.4-1.9-3.4-4.7v-3.2l3.3,3.7,3.2,3.7,6.3-4.6c3.4-2.6,6.2-5.4,6.2-6.3s1.8-13.2,3.9-27.5l3.7-26,3.8-.3c6.5-.6,6.3-1,4.9,15.9-.7,8.4-1.1,15.4-.8,15.7,1.3,1.3,30.3,8.6,38.5,9.6,10.8,1.5,14.6,3,21,8.6l4.5,3.9-5.2.1c-5.2,0-12.6-1.3-28.8-5-17.4-4-21.5-3.6-28.1,2.9-3.5,3.4-4.4,6.6-4.4,15.1a142.59,142.59,0,0,1-1.5,15.6c-.8,5.4-1.5,10.6-1.5,11.5s3.5,4.1,7.8,7.1c9.6,7,19.7,17.4,22.2,23,3,6.9,3.4,11,1.5,17.5-1.5,5.2-2.7,6.8-12,15.9-8.1,8-10.5,10.8-10.9,13.5-2.3,15-2.8,16.6-5.4,20.4-1.5,2.2-5.7,6.2-9.2,8.8-17.1,12.7-19.6,17.5-18.5,36.4l.6,11.8-3.2,5.4-3.1,5.4-3.2-5.4c-7.2-12.7-11.6-16-18.1-13.9-4.3,1.4-9.1,6.8-10.6,11.9-3,10,3,18,17.7,23.7,11.1,4.3,11.9,5.1,16.4,18.4,1.7,5.2,4.2,10.9,5.5,12.5,2.7,3.6,12,8.9,14,8.1s1.9-7.4-.6-20.2c-1.1-5.8-1.7-11.9-1.4-13.5.9-4,4.9-6.9,9.5-6.9,8.4,0,16.4,4.6,33,19,12.6,11,14.6,12.1,22.5,12.8,5.5.4,6.4.2,9.3-2.3s3.2-3.2,3.2-8.1c0-6.3-3.4-14.7-9.8-24.2-2.3-3.2-4.4-7-4.7-8.3-.5-2.1-.1-2.6,2.8-3.7,7.2-2.6,11-1,15.3,6.4,2.9,4.9,5.3,6,11.3,5,3.5-.5,3.8-.4,5.4,2.9,4.1,8.7,23.3,15.2,37.2,12.6a29.7,29.7,0,0,0,11.9-5.4c7.7-5.5,11.2-6.7,20-6.7,9-.1,13.1-2.1,17.3-8.3,4.8-7.2,5.3-18,1.4-31.5-.9-3-.8-3.3.7-2.7,7.3,3.1,15.2,4.7,26.2,5.5a146.57,146.57,0,0,1,21.5,3,78.67,78.67,0,0,0,16.5,2.3c10.5.1,15.5-2.3,25-12.1,11.2-11.6,61.4-47.2,84.6-60.2,10.7-5.9,27.6-13.1,34.2-14.5,2.8-.6,3.2-1,2.6-2.8a69.68,69.68,0,0,0-9.3-18.2c-5.4-7.1-7.1-10.8-7.1-15.7,0-8.6,8.6-19.1,22-27,3.5-2.1,6.9-3.9,7.4-4.1s-2.8-8.6-7.4-18.6l-8.5-18.4-9.5-2.9c-5.2-1.6-14.7-4.6-21-6.5-7-2.2-18.1-6.9-28.2-11.9L596,551l-12.7,2.8-12.8,2.8-.6,6.3c-.5,5.2-1.1,6.7-3.8,9.5-3.7,3.9-11.2,6.6-18,6.6-7.1,0-14.6-2.3-28.9-8.9-18.1-8.4-19.6-8.7-33.4-7.1-18.9,2.1-24.8.9-30.2-6.4-1.9-2.5-1.9-2.9-.6-5.3,3.8-6.7,15.4-8.5,28.6-4.5,6.8,2.1,36.8,5.7,38.5,4.7a9.35,9.35,0,0,0,1.4-3.5c.8-3.6,1.9-3.7,9.1-.5,3.1,1.4,5.8,2.5,5.9,2.5a34.18,34.18,0,0,0,.8-5.4c1.1-10.6,9.4-22.5,18.3-26.2,3.2-1.3,4.2-1.3,8.9.1,9.4,2.7,14.5,2,30.9-4,8.2-3,15.1-5.5,15.3-5.5s.3-1.9.1-4.1l-.3-4.2L600,494.4c-10-5.1-14.3-6.7-21.7-8.1l-9.1-1.7,2.4-4.9c1.4-2.7,2.4-5,2.2-5.2s-3.2-1-6.7-1.8l-6.5-1.7-5.1,4.9c-2.8,2.6-6.6,5.3-8.5,5.9-6.7,2.2-31.5,6.2-38.6,6.2-7.4,0-8.1-.3-10.1-5l-1-2.5,9.1-.1c11.4-.2,15.1-1.5,27.2-9.9,5.6-3.9,12.4-7.7,16.8-9.3,7.2-2.5,7.7-2.6,15.8-1.4,11,1.6,14.9,1.5,24.9-.4,11.7-2.1,23.3-7.9,30.7-15.2,5.4-5.3,14-16.8,13.1-17.5-.2-.2-2.6-1.6-5.4-3.2a84.39,84.39,0,0,1-8.2-5.3c-6.6-5-2.9-11.5,8.5-14.8,14-4,13.8-3.9,21.4-14.3,3.9-5.3,10.7-13.8,15-18.8s8.7-10.7,9.7-12.5,4.7-12.3,8.1-23.3l6.2-20,6.7-7c6.4-6.5,7.2-7.9,12.1-20.5,4.5-11.3,6-14.1,9.3-17,7.4-6.4,10.2-9.6,12.7-14.3l2.5-4.6-4.1-4.3c-5.9-6.2-8-9.5-12.9-21-3-6.8-5.6-11.4-7.9-13.5-3.5-3.2-11.7-6.3-16.7-6.3-4.6,0-16,2.7-27,6.4-17.1,5.7-24.9,7.6-33.9,8.2-11,.8-19.2-1-33.5-7.1a136.93,136.93,0,0,0-14.2-5.5c-2-.5-8.3.2-18,2-13.3,2.4-15.4,2.5-20.3,1.4-21.9-4.9-31.8-6.6-36.5-6.1-6.8.8-17.7,4.5-39,13.7-9.9,4.2-23.8,10.1-31,13.1-12.7,5.3-13.3,5.7-23.4,15.3-5.7,5.4-11.8,10.4-13.6,11.2-5.2,2.1-22.8,5.4-29.4,5.4-5.3,0-6.5-.4-9.3-2.9-3.2-2.9-3.2-3.1-1.8-5.7,2.3-4.1,5.9-4.9,15.8-3.4,8.3,1.3,8.6,1.3,13-1.1,7.8-4.1,34-30.5,32.1-32.3-1.2-1.2-13-2.8-16-2.2-2,.3-7.6,3.4-12.5,7-8.2,5.8-17,10.3-18.1,9.2-.4-.4,1.7-8.3,4.8-18.2l1-3.2,9.2-.4c7.9-.3,10.3-.9,16.7-3.8,6.8-3.2,8.2-3.5,16-3.4a45.22,45.22,0,0,1,14.4,2.3c8.4,3,8.6,2.9,8.6-2.8,0-6.9,1-8.9,7.5-15.1,4.7-4.5,12.5-14.7,12.5-16.3,0-.2-7.3,2.3-16.2,5.5-9.2,3.4-17,5.7-18.2,5.4s-8.2-1-15.6-1.6c-14.1-1.2-20.2-3-24.8-7.3l-2.4-2.2,21-.5,21-.5-5.4-9.4a96.68,96.68,0,0,1-5.2-9.6c.2-.1,3.3-1,7-1.9a81.84,81.84,0,0,0,13.5-5.3c3.7-1.9,14-6.8,22.7-10.9s17.6-8.5,19.6-9.9,6.8-6.4,10.6-11.1c5.4-6.6,10.1-10.9,21.4-19.3,8-5.9,16.8-12.3,19.5-14.1,7.3-4.9,15.4-12.9,17.7-17.3a33.44,33.44,0,0,0,2.5-8.8l.6-4.9h3.8c2.2,0,3.9-.4,3.9-.8a82.19,82.19,0,0,0-3-9.5c-1.6-4.8-3-9.5-3-10.4s2.3-3.8,5.1-6.4l5-4.8-3.3-.5c-1.8-.4-8.2-1.1-14.3-1.6-9.6-1-14.7-2-28.1-5.9C518.5,7.3,517.9,7.5,514.9,10.7ZM528,13.5a122.16,122.16,0,0,0,19.7,3.6c6.2.7,11.3,1.6,11.3,2a.88.88,0,0,1-.8.9c-1.3,0-4.2,5.7-4.2,8.2,0,1.4,1.1,5.7,2.4,9.6l2.5,7.2h-4.1c-3.8,0-4,.1-3.4,2.5.9,3.7-1.1,11.2-4.4,16a40.78,40.78,0,0,1-8.9,8.6c-36.8,27-39.7,29.4-46.1,37.1-8.7,10.7-11.7,12.9-26.7,19.7-7,3.2-17,7.9-22.1,10.5a141.89,141.89,0,0,1-18.5,7.3c-5,1.4-9.3,2.7-9.5,2.8a100.26,100.26,0,0,0,4.7,8.9l5,8.6H404c-11.6,0-21,.4-21,.8s1.3,2.7,3,5c5.5,7.6,13,10.4,31.5,11.7a93.86,93.86,0,0,1,12.5,1.4c2.9.6,5.4.1,13.5-2.9,16.1-6,15.8-6,8.4,1.6-7.7,8-8.9,10-8.9,14.8,0,1.9-.4,3.7-.8,4s-2.7-.2-5.1-1c-6.7-2.3-16.4-3.3-21.2-2.3a75.28,75.28,0,0,0-11.3,4.2c-6.3,2.8-8.2,3.2-16.5,3.3l-9.5.1-4.4,14.7c-2.4,8.1-4.2,14.9-4,15.1,1.1,1.1,14.3-4,19.8-7.8,15.4-10.4,14.8-10.1,20.7-10,3,.1,5.8.4,6.1.8.9.9-20.5,22-26.5,26.2-5.2,3.6-5.3,3.6-10.9,2.4-11.1-2.2-17-1.3-20.6,3.3s-1.6,10.1,4.9,13.5c4.7,2.4,22.1.8,36.4-3.3,4.7-1.4,7.3-3.2,17.1-12.4,11-10.2,12-10.9,22.4-15.1,6-2.4,19-7.9,29-12.1,19.6-8.5,33.6-13.5,39.9-14.5,3-.5,9.3.5,22.9,3.4l18.9,4.2,13.7-2.6c7.6-1.4,15-2.5,16.5-2.5s7.9,2.2,14.3,4.9c14.9,6.3,22,8.1,32,8.1,10.3,0,18.2-1.7,37.8-8.1,29.6-9.6,41.3-7.7,47.5,8,4.1,10.3,8.7,18.6,12.9,23.4,4.1,4.6,4.2,5,2.9,7.5s-6.4,7.9-13,13.7c-2.6,2.4-4.6,6.1-8.7,16.5-5,12.7-5.7,13.9-12.2,20.5l-6.8,7-6.6,21.4c-3.6,11.8-7.2,22.1-7.8,23s-4.5,5.4-8.4,10.1-10.2,12.8-14.1,18-7.7,10.1-8.6,10.8-4.9,2.1-9.2,3.3c-13.4,3.5-17.5,6.9-17.5,14.4,0,4.2.2,4.4,7.5,9.4,4.1,2.9,7.5,5.5,7.5,5.8,0,1.4-7.6,10.7-12.1,14.7-12.6,11.3-29.1,15.4-53.4,13.2-8.2-.8-9.7-.6-15.5,1.5-3.6,1.3-11.4,5.6-17.3,9.6s-12.7,7.8-15,8.4-8.7.9-14.4.7-10.3-.3-10.3-.2,1.3,3.1,2.9,6.7c2.5,5.6,3.4,6.7,6.5,7.7,4,1.3,12.3.8,24.6-1.5,4.1-.8,10.4-1.9,14-2.5,7.8-1.4,13.3-4,18.1-8.7,3.2-3.1,4-3.4,7.3-2.8,2,.4,3.6.9,3.6,1.1a39.61,39.61,0,0,1-2.5,5.4,38.21,38.21,0,0,0-2.5,5.5c0,.3,1.2.5,2.8.5,8,0,19.2,3.2,31,9,13.3,6.5,15.2,8.7,9,10.7-1.8.6-8.5,2.9-14.8,5.2-12.6,4.5-15.3,4.8-22.6,2.6-7.1-2.1-10.3-1.9-16,1.5-8.2,4.6-15.6,15.3-17.1,24.3-.3,2.2-1,3.6-1.7,3.4s-3.5-1.4-6.4-2.6l-5.3-2.1-1,2.8c-.5,1.5-1.2,3.3-1.4,4s-2.1,1.2-4.2,1.2c-7.6-.1-27-2.9-34.3-5-12.3-3.5-22.6-1.8-28.6,4.7q-5,5.4.6,12.3c5,6.3,9.5,7.5,25.3,6.5,21.8-1.3,20.6-1.5,37.2,6,8.3,3.7,17.3,7.4,20,8.1,7.5,2,17.5,1.8,23.9-.6,8.6-3.3,11.7-7.7,12.8-18,.3-2.3,1-2.7,11.3-4.9l11-2.3,15.2,7.5c13.7,6.9,25.8,11.3,54.6,20.1,3.6,1,4,1.7,9.8,14.1,3.3,7.1,6.7,14.4,7.4,16.2l1.3,3.1-6.5,3.9c-13.8,8-22.5,19.4-22.5,29.2.1,6.2,1.9,10.6,7.3,17.3,4.6,5.8,9.3,14.9,8.1,15.9-.4.3-4.3,1.8-8.7,3.4-18.7,6.5-38.6,18.2-76,44.9-16.5,11.8-28.1,20.9-34,26.7C541.4,767,537.4,769,527.6,769a72.2,72.2,0,0,1-14.1-2,205.74,205.74,0,0,0-23.5-3.5c-13.1-1.1-16.7-1.8-23.3-4.5-4.3-1.8-8.1-3-8.3-2.7s.3,3.6,1.3,7.4a72.21,72.21,0,0,1,1.8,16.9c0,9.5-.2,10.3-2.8,13.7-3.7,4.9-5.6,5.7-14,6.3-11.9.8-13.3,1.3-21.3,6.7-7.4,5-8.1,5.2-15.4,5.5-15.1.7-26-3.7-30.2-12.3-1.9-4-2.4-4.4-4.7-3.7a35.35,35.35,0,0,1-6.1.7c-3,0-3.7-.5-5.8-4.3-4.5-8.1-11.8-10.2-21.2-6.1l-4.9,2.1,1.9,4.4a88.18,88.18,0,0,0,6.2,10.7c8.2,12.1,10.9,22.6,6.8,26.7-2.3,2.3-5.2,2.5-11.5.9-3.3-.8-7.3-3.6-16.2-11.3-17.8-15.2-25.8-19.8-34.4-19.8S274,805.7,274,813.4a65.81,65.81,0,0,0,1.4,10.3,83.71,83.71,0,0,1,1.7,11.8c.3,5.7-.5,5.9-5.9,1.9-3.8-3-5.6-6.2-8.3-15.2-4-13.1-6.1-15.3-18.9-20.1-11.3-4.3-15.3-8.6-15.2-16.4.1-6.4,5.4-12.7,10.8-12.7,4,0,7.1,3.5,13.5,15l4.4,7.8,3.9-6.1c5.7-8.9,6.9-14.3,5.5-24-2.1-14.4.8-20.4,15.2-31.3,11.5-8.7,15.4-14.3,16.4-23.4,1.1-10.7,1.9-12.3,10.8-20.3,11.2-10.1,14.2-15.6,14.2-25.7,0-6.1-.5-8.4-2.7-12.5-3.7-7.2-10.7-14.5-20.9-22.2-7.8-5.8-8.7-6.9-8.4-9.2,2.7-15.9,3.4-21.5,3.4-26.8-.1-7.2.9-9.4,5.5-12.2,4.2-2.6,8-2.8,17.6-.8,4.1.9,11.8,2.5,17,3.7,9.2,1.9,23.1,2.5,27.7,1.2,2-.6,1.4-1.4-5.5-7.1-9.6-8-13.4-9.7-24.7-11a142.59,142.59,0,0,1-17.5-3.5c-4.7-1.3-10.7-2.9-13.4-3.6l-4.9-1.3.6-8.6c.4-4.7,1-12.1,1.3-16.4l.7-7.7h-8.1c-6.8,0-8.1.3-8.6,1.7-.3,1-2.2,13.8-4.2,28.5l-3.7,26.7-4.5,3.2-4.5,3.2-2.1-2.9c-4.4-6.2-12.3-13.8-17.3-16.6-3.2-1.8-5.3-3.7-5.3-4.7,0-5,3.3-12.1,8.5-18.1,3.6-4.2,5.7-7.5,6.1-9.9.3-2,.7-4,.8-4.5s3.1-1.9,6.6-3.3c8.5-3.2,14.9-7.4,17.9-11.9,2.8-4,3.9-12.6,2.4-18.2l-.8-3.3-9,4.5c-11.9,6-17.7,10.6-25.5,20.1-11.7,14.4-18.1,20.2-24.4,22a23.84,23.84,0,0,1-10,1l-4.5-.7,2.1-5.2c3.3-8.2,3.3-8.1-.9-9.5l-3.8-1.3V506.7c0-23.8-.3-22.7,8.4-31.1,3.6-3.6,4.6-4,8.8-3.9a53.49,53.49,0,0,1,12.2,2.7c9,3.1,14.1,3.3,19.7.5,4.9-2.3,8.6-6.7,11.8-14.2,2.4-5.4,6.2-19.5,5.4-20.2-.2-.3-5.6,4.1-11.9,9.6-10.8,9.4-11.6,9.9-14.9,9.4a15.05,15.05,0,0,1-4.3-1.4c-.6-.6,2.9-19.6,3.9-20.9.1-.2,6.6-2.1,14.4-4.2,13-3.6,14.8-4.4,20.9-9.1l13.9-10.8,7.3-5.6-13.3-.6c-13.2-.6-20.4-2.1-26.9-5.5l-3.4-1.7,4.3-1.4c8.9-3,12.2-9.6,8.8-17.6-3.5-8.3-11.1-11.1-19-7.2-6.9,3.5-8,6-8.6,19.5-.5,11.4-.6,12-3.4,14.9-1.6,1.7-6.3,4.5-10.5,6.2-15,6.2-18.9,8.8-24.6,16.3l-2.6,3.4-12.5.7c-14.6.9-25.4-.4-32.1-3.9l-4.7-2.3L158,426c8.8-4.5,14.9-6,24.4-6,9.9,0,11.8-.7,20.5-7.8,4.9-3.9,4.7-4.2-3.6-6.7-7.7-2.4-18.7-1.8-33.6,1.5-7.4,1.6-15.4,3-17.9,3-5.1,0-14.5-2.3-19-4.6l-3.1-1.6,5.9-2.5c18.8-8,17.4-7.6,24.9-6.9a79.66,79.66,0,0,1,12.2,2l5.2,1.4.3-7.2.3-7.1,6.4-1.3a52,52,0,0,0,7-1.7c.2-.3-.4-1.4-1.5-2.6-1.5-1.7-2-4-2.3-11.1l-.3-9.1,2.3.6c17.2,3.9,18.3,4,29.9,2.5l11.4-1.3-5.2-3.9c-5.8-4.2-12.4-6.6-18.4-6.6a17.37,17.37,0,0,1-6.7-1.5c-2.8-1.4-8.1-6.9-8.1-8.4s14.9-3.2,22.7-2.6c10.2.9,11.2-.1,12.4-11.7.4-4.5.7-8.3.6-8.5a35.41,35.41,0,0,0-5.5,1.1c-2.9.8-5.4,1.1-5.6.8a53.68,53.68,0,0,1-1.1-6.8l-.7-6.2,5.4.2c3.9.1,6.9-.6,11.2-2.7l6-2.8-9.6-6.4c-7.7-5.2-10.7-6.5-15-7.1-5.6-.7-11.1-2.6-13.6-4.7-1.2-1,2.4-1.3,18.3-1.7l19.8-.5-5.1-5.6c-7.9-8.7-9.3-8.9-32.9-6.1l-6.3.8v-3.1c0-5.3-2.9-14.5-6.4-20.5l-3.4-5.8,3-.6c6.6-1.3,12.7-.6,20.3,2.5,9.6,3.8,17.9,5.3,23.4,4.2l4.2-.8-9.4-11a177.81,177.81,0,0,0-17.2-17.4l-7.7-6.4,3.4-1.4c3.5-1.5,7.4-4.8,8.9-7.5,2.1-3.9-1.5-7.5-9.3-9.2-2.1-.5-2.7-1.3-3.3-4.5-.4-2.3-.2-4.8.5-6,2.2-4.1,11.6-1.9,22.4,5.4l2.9,1.9-.6-5.4c-.4-3-.9-8.7-1.3-12.5l-.6-7,5.2,5.1,5.3,5.2,9.5-4.6c16.1-7.8,25.3-6.9,33.6,3.2a28.4,28.4,0,0,0,6.8,6.2c3.1,1.6,20.8,3.5,20.8,2.2s-30.6-29.3-38.8-35.5c-6.9-5.3-12.2-11.6-10.9-12.9.2-.3,1.8,1.3,3.4,3.5l3,4.1,6.1-9.9c4.2-6.6,6.2-10.9,6.2-13,0-1.7-1.6-6.3-3.5-10.1a82.29,82.29,0,0,1-3.5-7.5c0-1,26.4-.4,40,.9,7.4.7,13.6,1.2,13.7,1.2s-5-7-11.3-15.5S294,70.7,294.2,70.5s3.6.1,7.6.7,7.5.8,7.8.5-.6-4.2-2.1-8.7c-2.2-6.7-2.5-8.6-1.6-10.6,1.9-4.2,1.3-6.2-2.9-9.5-6.6-5.3-5.9-7.5,5.3-15.9,5.2-3.8,9.6-7,9.9-7s2.5,3,4.9,6.7,4.7,7,5,7.4,4.2-.2,8.7-1.5,8.2-2.1,8.2-1.7-1.6,5.5-3.6,11.4-3.4,11-3.2,11.2c.6.6,11.8-2.5,14.8-4,3.7-1.9,8.6-7.2,10.1-10.7l1.2-3,11.9,11.9C382.7,54.2,388,59,388,58.5a56.94,56.94,0,0,0-1.5-6.5,52.6,52.6,0,0,1-1.5-6.7c0-1.2,10.2-5.4,24-9.8,19.5-6.2,22.7-6.5,37-3.9,11.7,2.1,18.1,1.2,26.3-3.6,6.3-3.6,6.9-3.8,17.8-4.2,13.2-.5,17.8-2.1,24.9-8.6,2.5-2.3,4.5-4.1,4.6-4.2S523.4,12.1,528,13.5ZM207.6,549.1c4,2.2,7.6,4.4,7.9,4.9s-.2,5.2-1,10.4c-1.8,10.9-2,10.2,6.8,24.4,5,8,6.7,15.4,4.7,19.2-.7,1.3-2.8,4.3-4.6,6.8-4.3,5.5-5.5,8.3-11,25.2-6.3,19.3-11.9,26.7-23.5,31.1-6.7,2.6-7.7,2.4-4.6-.9,2.6-2.7,2.6-2.7.8-5.6a21.81,21.81,0,0,1-3.2-17.2c1.5-6.6,5.8-13.2,17.7-26.6,11.1-12.6,14.1-17.1,15.9-23.7.7-2.8,1.1-5.1.9-5.1s-3.8,2.7-7.9,6c-8.9,7-13.1,8.5-21,7.5l-5.7-.7.6-4.5c.7-5.2,2.9-10.3,8.6-19.2,3.9-6.4,4-6.6,4-15.8s1.4-14.3,5.2-19.1C199.6,544.6,199.3,544.5,207.6,549.1Zm34.7,35,13.7,2.2v5.2c0,5.1.1,5.2,3.9,6.7,3.5,1.4,10.1,8.5,10.1,11s-11.9-1.4-20.6-7.1c-6.2-3.9-23.6-20-21.9-20.1C228.1,582,234.7,582.9,242.3,584.1Z"/><path class="cls-1" d="M137.1,34.2c-2.4,1.2-8.7,6.2-14,11.1C109.7,58,104.5,61.1,87,67.4,76.9,71,73.8,74.2,71.3,83.7c-1.9,7.5-4.2,11.8-9.1,17.3l-3.9,4.4-1.6-3c-2-4-8-9.2-11.4-10S28,94.8,27.4,96.5c-.3.7,0,3.2.6,5.4l1.1,4.2-5.6,5.2c-4.3,4.1-5.5,5.9-5.5,8.2,0,5.5,3.9,8,10.6,7,4.3-.6,4.4-.6,5.9,3.1a24.56,24.56,0,0,1,1.5,4.5c0,.5-3.1.9-6.9.9H22.2l-1.6,4.7a36,36,0,0,0-1.6,5.5c0,.4,2.7,2.1,5.9,3.7s6.8,4.2,8,5.7c2,2.6,4.8,10.1,4,10.7-.2.2-5.2,2.2-11.2,4.3l-10.7,4,3.5,4.1c7.9,9.3,17.8,13,25.8,9.9,5.4-2.1,8.4-4.9,13.4-12.2,6-8.9,5.8-8.7,16.9-7.9,9,.7,9.6.6,9.1-1.1-.3-1.1-1.1-3.9-1.7-6.4-2-7.5-5.5-13.2-11.9-19.4-3.4-3.2-6.1-5.9-5.9-6.1.7-.5,7.1-2.5,7.4-2.3.1.2.9,2,1.7,4,1.9,4.5,10.1,10.3,16.8,11.7,6,1.3,13.1-.4,25.1-6.2l8.8-4.2-2.4-5c-3.9-8.2-10.2-12.5-18.8-12.5-6.1-.1-3.5-1.1,12.5-5,12.8-3.1,13.8-3.5,13.2-5.4a64.73,64.73,0,0,1-1.2-9.6c-.5-6.7-.3-7.8,1.7-10.3,2.9-3.7,5.5-4.9,19.4-9.1,6.6-2,12.1-3.8,12.3-3.9a89.49,89.49,0,0,0-2.6-10.4c-2.4-8.4-2.7-10.8-2-14.8,1.1-6.1-.2-11.3-3.8-14.7C146.5,31.4,143.7,30.9,137.1,34.2ZM150,39l3.3,3.1-.6,7.9c-.5,6.6-.2,9.2,1.8,16.1,1.3,4.6,2.3,8.4,2.2,8.5s-4.5,1.4-9.7,2.9c-13.3,3.7-17.3,5.7-20.6,10-2.6,3.4-2.8,4.5-2.7,10.9.1,3.9.3,8,.5,9,.3,1.8-1.8,2.5-19.9,6.9C87,118.6,84,119.6,84,121.1c0,1.7.9,1.9,10.5,1.9,14,0,20.1,2.6,24.1,10.2L120,136l-6.7,3.1c-14.8,6.8-21,7.5-28.8,3-6.8-3.9-8.3-5.9-8.6-10.9-.2-2.3-.5-4.2-.8-4.2-1.3,0-17.1,6.6-17.1,7.1,0,.3,2.7,2.7,6,5.4,6.9,5.6,12.4,13,14.4,19.7l1.4,4.8H71.6c-9.8,0-10.8.6-16.5,9.4-4.5,6.8-9.7,11.2-14.7,12.2-4.1.8-12.1-2.7-16.4-7.1l-3.3-3.4,2.9-1.2c1.6-.6,6.1-2.2,9.9-3.6s7.1-2.7,7.3-2.8c.8-.7-2.8-11.7-4.8-14.5a26.23,26.23,0,0,0-7.6-6.1c-5.5-3.2-5.8-3.6-4.8-6.3.5-1.3,2.3-1.6,9-1.6,6.1,0,8.4-.3,8.3-1.3a59,59,0,0,0-2.8-8.2l-2.9-7H28.4c-5.6,0-6.9-.3-7.2-1.7-.4-1.9,4.9-8.1,9-10.6,2.3-1.3,2.8-2.2,2.3-4.1-1.9-7.6-1.9-7.8,1.6-9A30.47,30.47,0,0,1,42.2,96c4.3,0,5.4.4,8,3.2a38.2,38.2,0,0,1,4.9,7l2,3.8,3-2.2c5.1-3.8,11.8-13.5,13.5-19.7.8-3.1,1.9-6.7,2.3-8.1,1.2-3.9,7.9-8.3,17.5-11.4,10.8-3.6,20.7-9.9,31.4-20.1S138.7,36.1,143.1,36C145.9,36,147.6,36.8,150,39Z"/><path class="cls-1" d="M164.5,87.6c-1.1.1-8.6.8-16.7,1.5L133,90.3v13.9l2.8-.6c1.5-.3,6.9-1,11.9-1.6s10.6-1.6,12.2-2.5c2.9-1.5,6.7-5.8,9-10.3C170.1,86.9,169.9,86.8,164.5,87.6Zm-3.1,6.5c-2.6,2.6-4.2,3.2-10.5,3.9-4.1.5-8.9,1.2-10.6,1.5-3.2.6-3.3.5-3.3-2.9V93.2l8.8-.7c4.8-.3,9.6-.7,10.7-.9s3.3-.4,5-.5l3-.1Z"/><path class="cls-1" d="M107.5,206.2c-9.8,8.1-9.5,6.8-4.7,19.5l3.1,8.3h-4.5c-5.7,0-9.1-1.7-13.1-6.8-3.3-4-15.5-11.2-16.1-9.4-.1.5.8,9.2,2.2,19.3s2.3,18.5,2.1,18.7-5.2-2.4-11.2-5.7c-10.6-6-10.8-6-11.6-3.8-1.4,3.5-.1,12.9,2.3,17.6s8.4,11.7,14.3,16.3l3.8,3.1,4.8-4.7c3.5-3.4,5.4-4.6,7.7-4.6,5.7,0,8.4,4.9,10.4,19.5,2.2,15.5,5,21.3,11.6,24.1,4.9,2,7.5,1.7,13.7-1.6,7.5-4,10.1-3.9,14.3.5l3.3,3.5,5.7-1.5c10.8-2.8,14.4-1.7,14.4,4.5,0,2.1-.5,4.2-1,4.5-1.8,1.1-13,14.5-13,15.5,0,1.5,7,1.2,12.8-.5,7.1-2.1,10.9-5.8,16-15.4a99.12,99.12,0,0,1,6.6-10.9c1.2-1.5,3.9-4.8,6-7.4l3.7-4.7-4.3-1c-15.8-3.9-25.3-8.1-33.5-14.8-7.5-6-8.7-9.3-12.7-34.8-3.9-24.1-5.6-31.6-8.6-37.5-2.2-4.2-9.1-12.2-13-15l-2.8-2Zm21,10.8c3.5,6.9,5,13.3,9,38,1.9,12.4,4.3,23.9,5.2,25.7,4.4,8.9,18.2,18.3,34,23.2l8.2,2.6-4.7,6.1a99.34,99.34,0,0,0-8.4,13c-5.3,10.1-10.6,14.4-17.5,14.4-2.5,0-2.3-.3,2.9-5.8,3-3.1,5.8-7,6.2-8.6.9-3.5-1-9.3-3.4-10.6s-10.4-1.3-15.1.2c-3.6,1-4,.9-6.6-1.7-5.4-5.4-7.7-5.4-17.9-.2l-6.2,3.1-4.1-1.8c-5.3-2.4-7.7-7.3-9.5-19.8-2-13.5-3.3-17.4-6.6-21.1-2.5-2.8-3.5-3.2-7.5-3.1s-5.2.6-8.9,4.3L73.4,279l-6.3-6.2c-3.5-3.5-7.2-8.2-8.3-10.5-1.8-4-3.6-13.3-2.6-13.3.3,0,5.8,3,12.2,6.6s11.9,6.4,12.2,6.2-.7-8.8-2.1-18.9-2.5-19-2.5-19.7c0-2.1,3.9.4,10.5,6.9s12.2,8.5,20,7.3l4.2-.6-3.8-9.9c-2.2-5.5-3.9-10.6-3.9-11.3s3-3.9,6.8-6.9l6.7-5.6,4.8,4.7A43.74,43.74,0,0,1,128.5,217Z"/><path class="cls-1" d="M161.2,245.9c-4.7,8.7-8.2,12.3-13.8,14.1l-3.7,1.2.6,6.3c1.4,14.4,7.8,20.6,16.7,16,4.8-2.5,6-6.1,5.9-17.7-.1-5.7-.4-14.2-.8-19.1l-.6-8.7Zm2.7,21.1c.1,8.4-1.2,11.7-5.2,14-2.4,1.3-3,1.3-5.4,0-2.9-1.6-4.5-5.3-5.7-12.7L147,264l4.6-2.2a20.61,20.61,0,0,0,7.8-6.6l3.1-4.4.7,4.4A113.32,113.32,0,0,1,163.9,267Z"/><path class="cls-1" d="M96.2,349.7c-1.7,5.3-3,9.8-2.8,10,.4.4,34.9-2.7,35.4-3.2.2-.2-28.6-16.5-29.2-16.5C99.5,340,98,344.4,96.2,349.7Zm13.1-.6a84.28,84.28,0,0,1,8,4.8c.5.5-3.5,1.1-8.8,1.5s-9.9.5-10.2.2c-.6-.5,2.6-10.6,3.3-10.6A75,75,0,0,1,109.3,349.1Z"/><path class="cls-1" d="M79.5,413.6c-1.1.9-6.4,4.2-11.7,7.5-11.2,6.9-16.2,12-17.9,18.1a28.8,28.8,0,0,1-1.8,5c-.3.3-4.2,1.1-8.6,1.7-11.9,1.7-20.2,4-27.5,7.6-10.7,5.5-10.7,5.4-6.6,9.4,3.2,3.1,4.1,3.4,9.3,3.4,10,0,22.7-6.5,47.8-24.4,19.4-13.7,22.9-18.2,21-26.8C82.8,411.6,82.3,411.4,79.5,413.6Zm.5,7.5c-1.2,4.3-3.6,6.7-17,16.4-7.5,5.5-10.6,7.3-10.8,6.2-.5-2.3,3.5-9.4,6.9-12.5,3-2.6,21.2-14.3,21.6-13.8A16,16,0,0,1,80,421.1ZM45,450a133,133,0,0,1-12.7,7.2c-8.1,4.1-11.5,5.3-16.3,5.6-5.9.4-9.7-.9-8.4-2.9.9-1.6,9.7-5.6,15.9-7.4a190.75,190.75,0,0,1,23-4.4C47.1,448.1,46.4,448.9,45,450Z"/><path class="cls-1" d="M120.3,423.7a66.67,66.67,0,0,1-10.4,6.6c-7.4,3.8-9.7,6.5-10.5,12.9-.6,4-.4,4.8.9,4.8,3.7,0,8.9,3.6,11.8,8.1,2.7,4.3,3.5,4.9,7.7,5.4,2.6.4,6.6,1,8.9,1.3l4.2.7L126,468c-3.8,2.5-7,4.7-7,5s3.6,2.5,8,4.9,7.7,4.8,7.3,5.1-11.4,3.2-24.3,6.4-23.8,6.1-24.2,6.5c-1.5,1.3,5.6,10.4,8.7,11.3,18.2,4.9,29.2,2.2,31.1-7.7.6-3.2.7-3.3,3.7-2.4,5.6,1.6,10.3,1,17.2-2.2,6.2-2.9,7.2-3.1,13.9-2.6l7.3.6,4.3-4.5c5.6-5.9,9-7.6,16.7-8.2l6.3-.5v-3.2c0-4.8-2.8-13.1-5.5-16.3-1.6-1.9-6.1-4.5-12.5-7.2-10.1-4.3-14.6-7.2-26.3-17a113.74,113.74,0,0,0-16.4-10.7l-9.8-5.1Zm18.7,8a95.08,95.08,0,0,1,12,8.8c9.2,8.1,15.3,12,24.6,15.5,4.4,1.7,9.3,4.3,10.7,5.8,2.5,2.5,6,12.8,5,14.4-.2.5-1.8.8-3.5.8-5.7,0-11,2.4-16.6,7.4l-5.5,5-7.3-.3c-6.6-.2-8.1.1-13.9,2.9-6.2,3-6.9,3.1-12.3,2.2a58.67,58.67,0,0,1-7.3-1.7c-1.3-.5-1.8.3-2.4,4.1-1,7.2-3.9,9.4-12,9.4-9,0-15.5-1.7-18.3-4.7-1.3-1.4-2-2.9-1.5-3.3s12.6-3.6,27-7.1S144,484.3,144,484s-4.4-2.9-9.6-5.9l-9.6-5.3,8.7-5.8,8.7-5.8-3.8-.5c-2.2-.4-7.8-1.1-12.7-1.8-7.3-.9-8.9-1.5-9.8-3.3-2-3.7-7.2-8.5-10.5-9.6-2.9-1-3.2-1.4-2.4-3.8,1.5-5.2,2.1-5.7,9.4-9.5,4-2,8.3-4.8,9.5-6.1l2.3-2.4,4.6,2.1C131.4,427.5,136,429.9,139,431.7Z"/><path class="cls-1" d="M177.1,533.1c-12.2,2.1-25.1,11-38.5,26.8-15.3,18.1-17,22.3-12.1,30.7,2.6,4.5,13.3,13,14.6,11.7.4-.5,2.3-4,4.3-7.9,4-8,4.6-13.7,2-19.9l-1.5-3.7,4.3.6c9.2,1.4,16.5-3.4,24.3-15.9,4-6.3,10.5-20.4,10.5-22.6C185,531.9,184.5,531.9,177.1,533.1Zm2.4,5.1c-1.6,5.1-8.9,18-12.7,22.3-6.1,6.9-8.6,7.9-18.4,7.1l-8.3-.7,2.6,5.3c4,8.2,4,11.6.5,19.2-1.7,3.6-3.5,6.6-4.1,6.6s-3.2-2.2-5.9-4.8c-8.4-8.2-8-11.8,2.9-25.2,13.3-16.4,23.2-24.9,34.5-29.5C178.3,535.3,180.4,535.3,179.5,538.2Z"/><path class="cls-1" d="M103,548.2c-4.7,3.3-9.2,6.3-10,6.8-2.2,1.3-.9,2,4.8,2.7,6.4.7,9.2,0,12.5-3.3,2.1-2.1,2.7-3.7,2.7-7,0-2.3-.3-4.5-.7-4.7S107.7,545,103,548.2Zm7,.7c0,2-3.7,5-7,5.6-4,.8-3.9.7,1.5-3.4C108.7,548,110,547.4,110,548.9Z"/><path class="cls-1" d="M104.5,582.2c-4.3,2.2-8.2,5.4-9.5,7.8-.5.9-1.4,5.4-2,10-.8,6-2.5,11.5-5.6,18.8-4,9.1-7.3,20.6-7.4,25.4,0,1.5.4,1.5,4.7.2,6.8-2.1,9.1-3.9,10.4-8.4,1-3.3,1.6-3.9,3.1-3.4,2.5.7,15.5-1.4,19-3.2a11.46,11.46,0,0,0,3.8-3.3c1.7-3.2,1-11.2-1.4-17.6-1.3-3.3-4.1-11.1-6.2-17.3S109.3,580,109,580A48.59,48.59,0,0,0,104.5,582.2Zm4.4,7c.7,2.4,3.1,8.8,5.3,14.2,7.2,18.1,6.3,22.9-4.7,24.7-8.1,1.4-9.6,1.4-12.7.6-2.5-.7-2.8-.4-3.9,3.5-1.4,4.9-3.3,7.3-6.8,8.3-2.3.7-2.3.6-1.6-3.1.8-4.6,3-10.9,7.9-22.4,2-4.7,3.6-10.1,3.6-12,.1-6.8,1.8-11.4,5.4-14.8,2-1.7,4.2-3.2,4.9-3.2S108.2,586.9,108.9,589.2Z"/><path class="cls-1" d="M72.4,591.6l-11.2,8.5,1.4,5.2,1.4,5.2-7.1,7.1-7,7,2.5,2.3c2.4,2.3,2.5,2.3,7.8.6,12.2-4,23.4-12,27.3-19.5,2.8-5.4,3-12.7.5-19.3-1.2-3.1-2.7-5.7-3.3-5.6S78.5,586.9,72.4,591.6Zm13.3,1.3c2.9,10-2.9,19.8-15.6,26.5-7.8,4.1-15.1,6.9-15.1,5.8,0-.4,2.9-3.6,6.4-7.1l6.4-6.3-1.4-5.1a33.09,33.09,0,0,1-1.1-5.4c2.4-2.4,17.5-13.1,18.2-12.9C84,588.5,85,590.6,85.7,592.9Z"/><path class="cls-1" d="M229.3,628.2c-4.9,8.2-5.3,10-5.2,25.6,0,17,.9,20.6,5.9,24,8,5.4,17.7-.9,20.2-13.1,2.3-10.9-2.9-28.1-11.2-37.1-2.4-2.5-4.8-4.6-5.4-4.6S231,625.4,229.3,628.2Zm8,2.5a51.34,51.34,0,0,1,5.8,9.8c2.7,5.8,3.4,8.5,3.7,15.7.5,10-.5,13.6-5.1,17.4-4,3.4-9.2,3-12.1-.9-1.8-2.5-2.1-4.5-2.4-16.6-.2-7.9.1-15.4.7-17.7,1.2-4.3,4.6-10.4,5.9-10.4C234.3,628,235.8,629.2,237.3,630.7Z"/><path class="cls-1" d="M167.9,680c-9.7,1.7-15.9,12.7-15.9,28.2,0,3.7.3,6.8.8,6.8s4.9-2.7,10-5.9c9.7-6.2,10.1-6.3,26-7.7,3.9-.3,7.2-.9,7.2-1.3a69.39,69.39,0,0,0-4.8-7.1C183.6,682.8,176.1,678.6,167.9,680Zm10,5c3.7,1.8,12.1,10.3,12.1,12.1,0,.5-.6.9-1.2.9s-5.1.5-9.7,1c-7,.8-9.3,1.5-13.5,4.3-2.8,1.8-6.4,4.2-8,5.3l-2.9,1.8.6-6.3C157.1,687.3,166.6,679.2,177.9,685Z"/><text class="cls-2" transform="translate(15 238) scale(0.48 1)">Highlander’s</text><text class="cls-3" transform="translate(224.09 674.9) scale(1.02 1)">Heart</text></svg>